<?xml version="1.0" standalone="no"?>
<!DOCTYPE svg PUBLIC "-//W3C//DTD SVG 20010904//EN"
 "http://www.w3.org/TR/2001/REC-SVG-20010904/DTD/svg10.dtd">
<svg version="1.0" xmlns="http://www.w3.org/2000/svg"
 width="512.000000pt" height="512.000000pt" viewBox="0 0 512.000000 512.000000"
 preserveAspectRatio="xMidYMid meet">

<g transform="translate(0.000000,512.000000) scale(0.100000,-0.100000)"
fill="#000000" stroke="none">
<path d="M2432 5107 c-18 -8 -180 -322 -673 -1309 -414 -828 -649 -1308 -649
-1327 0 -20 9 -37 31 -55 l31 -26 449 0 c247 0 449 -3 449 -7 0 -4 -56 -140
-124 -302 -68 -163 -284 -678 -480 -1145 -254 -603 -355 -855 -350 -870 12
-39 45 -66 81 -66 25 0 43 9 73 37 38 37 2689 3184 2723 3233 22 32 22 82 -2
111 l-19 24 -526 5 -525 5 490 775 c270 426 497 787 505 802 21 41 17 66 -15
99 l-29 29 -709 -1 c-502 0 -715 -4 -731 -12z m1248 -163 c0 -3 -226 -360
-502 -793 -314 -492 -504 -798 -506 -817 -3 -22 3 -39 21 -60 l25 -29 510 -5
510 -5 -1105 -1310 c-607 -720 -1109 -1314 -1115 -1320 -5 -5 -2 8 7 30 32 80
292 702 522 1253 129 309 235 576 235 594 1 22 -7 38 -26 55 l-27 23 -445 0
c-244 0 -444 2 -444 5 0 3 268 541 595 1195 l595 1190 575 0 c316 0 575 -3
575 -6z"/>
</g>
</svg>
